<svg height="512pt" viewBox="0 0 512 512" width="512pt" xmlns="http://www.w3.org/2000/svg"><path d="m512 256c0 141.386719-114.613281 256-256 256s-256-114.613281-256-256 114.613281-256 256-256 256 114.613281 256 256zm0 0" fill="#00bb64"/><path d="m511.21875 276.070312-141.992188-141.992187c-28.261718-30.292969-68.527343-49.242187-113.226562-49.242187-85.429688 0-154.832031 69.402343-154.832031 154.832031.003906 44.699219 18.949219 84.964843 49.242187 113.226562l154.433594 154.429688c111.625-21.566407 197.410156-115.628907 206.375-231.253907zm0 0" fill="#008c4a"/><path d="m256 84.839844c-85.429688 0-154.828125 69.398437-154.828125 154.832031 0 85.507813 69.316406 154.828125 154.828125 154.828125v29.699219c0 8.628906 9.738281 13.652343 16.761719 8.652343 33.789062-24.082031 108.519531-82.230468 128.058593-138.300781.03125-.082031.050782-.160156.078126-.25 6.410156-16.992187 9.929687-35.402343 9.929687-54.628906 0-85.511719-69.316406-154.832031-154.828125-154.832031zm-13.699219 158.699218c0 21.5625-4.730469 39.699219-24.800781 53.570313-.03125.011719-.050781.03125-.078125.050781-3.242187 2.199219-7.640625-.191406-7.640625-4.109375v-29.679687h-26.3125c-5.648438 0-10.230469-4.582032-10.230469-10.222656v-44.589844c0-5.648438 4.582031-10.230469 10.230469-10.230469h48.609375c5.652344 0 10.222656 4.582031 10.222656 10.230469zm96.460938 0c0 21.5625-4.742188 39.699219-24.8125 53.570313-.027344.011719-.050781.03125-.070313.050781-3.25 2.199219-7.640625-.191406-7.640625-4.109375v-29.679687h-26.316406c-5.652344 0-10.222656-4.582032-10.222656-10.222656v-44.589844c0-5.648438 4.570312-10.230469 10.222656-10.230469h48.609375c5.648438 0 10.230469 4.582031 10.230469 10.230469zm0 0" fill="#fefefe"/><path d="m256 84.839844v339.359375c0 8.628906 9.738281 13.652343 16.761719 8.652343 33.789062-24.082031 108.519531-82.230468 128.058593-138.300781.03125-.082031.050782-.160156.078126-.25 6.410156-16.992187 9.929687-35.402343 9.929687-54.628906 0-85.511719-69.316406-154.832031-154.828125-154.832031zm82.761719 158.699218c0 21.5625-4.742188 39.699219-24.8125 53.570313-.027344.011719-.050781.03125-.070313.050781-3.25 2.199219-7.640625-.191406-7.640625-4.109375v-29.679687h-26.316406c-5.652344 0-10.222656-4.582032-10.222656-10.222656v-44.589844c0-5.648438 4.570312-10.230469 10.222656-10.230469h48.609375c5.648438 0 10.230469 4.582031 10.230469 10.230469zm0 0" fill="#fff5cb"/></svg>